<svg xmlns="http://www.w3.org/2000/svg" width="398.919" height="120.197" viewBox="0 0 398.919 120.197">
  <path id="Path_9211" data-name="Path 9211" d="M1185.309,90.251v87.773a8.568,8.568,0,0,0-8.393,1.816l-.064.032a8.558,8.558,0,0,1-11.529,0l-.068-.032a8.567,8.567,0,0,0-11.529,0l-.032.032a8.6,8.6,0,0,1-11.561,0l-.036-.032a8.608,8.608,0,0,0-11.561,0l-.032.032a8.6,8.6,0,0,1-11.561,0l-.036-.032a8.608,8.608,0,0,0-11.561,0v.032a8.6,8.6,0,0,1-11.561,0l-.036-.032a8.608,8.608,0,0,0-11.561,0l-.032.032a8.6,8.6,0,0,1-11.565,0v-.032a8.608,8.608,0,0,0-11.561,0l-.032.032a8.6,8.6,0,0,1-11.561,0v-.032a8.613,8.613,0,0,0-11.565,0l-.032.032a8.6,8.6,0,0,1-11.561,0v-.032a8.613,8.613,0,0,0-11.565,0l-.032.032a8.6,8.6,0,0,1-11.561,0v-.032a8.608,8.608,0,0,0-11.561,0l-.036.032a8.6,8.6,0,0,1-11.561,0l-.032-.032a8.613,8.613,0,0,0-11.564,0v.032a8.6,8.6,0,0,1-11.561,0l-.032-.032a8.608,8.608,0,0,0-11.561,0v.032a8.6,8.6,0,0,1-11.565,0l-.032-.032a8.608,8.608,0,0,0-11.561,0v.032a8.605,8.605,0,0,1-11.565,0l-.032-.032a8.608,8.608,0,0,0-11.561,0v.032a8.6,8.6,0,0,1-11.561,0l-.036-.032a8.608,8.608,0,0,0-11.561,0v.032a8.6,8.6,0,0,1-11.561,0l-.036-.032a8.608,8.608,0,0,0-11.561,0v.032a8.6,8.6,0,0,1-11.561,0v-.032a8.613,8.613,0,0,0-11.565,0l-.032.032a8.6,8.6,0,0,1-11.561,0v-.032a8.608,8.608,0,0,0-11.561,0l-.036.032a8.6,8.6,0,0,1-11.561,0v-.032a8.567,8.567,0,0,0-8.326-1.816V90.251a28.338,28.338,0,0,1,28.344-28.344h342.232A28.338,28.338,0,0,1,1185.309,90.251Z" transform="translate(-786.389 -61.907)" fill="#db6d00"/>
</svg>
