<svg xmlns="http://www.w3.org/2000/svg" width="484.514" height="145.985" viewBox="0 0 484.514 145.985">
  <path id="Path_9318" data-name="Path 9318" d="M1119.047,77.268V183.874a10.4,10.4,0,0,0-10.194,2.206l-.08.04a10.4,10.4,0,0,1-14,0l-.084-.04a10.4,10.4,0,0,0-14,0l-.04.04a10.455,10.455,0,0,1-14.045,0l-.04-.04a10.45,10.45,0,0,0-14.041,0l-.04.04a10.455,10.455,0,0,1-14.045,0l-.04-.04a10.455,10.455,0,0,0-14.045,0v.04a10.45,10.45,0,0,1-14.04,0l-.04-.04a10.455,10.455,0,0,0-14.045,0l-.04.04a10.45,10.45,0,0,1-14.041,0v-.04a10.455,10.455,0,0,0-14.045,0l-.04.04a10.45,10.45,0,0,1-14.041,0v-.04a10.455,10.455,0,0,0-14.045,0l-.04.04a10.455,10.455,0,0,1-14.045,0v-.04a10.45,10.45,0,0,0-14.041,0l-.04.04a10.455,10.455,0,0,1-14.045,0v-.04a10.45,10.45,0,0,0-14.041,0l-.04.04a10.455,10.455,0,0,1-14.045,0l-.039-.04a10.455,10.455,0,0,0-14.045,0v.04a10.45,10.45,0,0,1-14.041,0l-.04-.04a10.455,10.455,0,0,0-14.045,0v.04a10.45,10.45,0,0,1-14.041,0l-.039-.04a10.455,10.455,0,0,0-14.045,0v.04a10.45,10.45,0,0,1-14.04,0l-.04-.04a10.455,10.455,0,0,0-14.045,0v.04a10.455,10.455,0,0,1-14.045,0l-.04-.04a10.45,10.45,0,0,0-14.041,0v.04a10.455,10.455,0,0,1-14.045,0l-.04-.04a10.45,10.45,0,0,0-14.04,0v.04a10.455,10.455,0,0,1-14.045,0v-.04a10.45,10.45,0,0,0-14.041,0l-.044.04a10.45,10.45,0,0,1-14.041,0v-.04a10.455,10.455,0,0,0-14.045,0l-.04.04a10.45,10.45,0,0,1-14.04,0v-.04a10.384,10.384,0,0,0-10.11-2.206V77.268a34.416,34.416,0,0,1,34.424-34.424H1084.62A34.419,34.419,0,0,1,1119.047,77.268Z" transform="translate(-634.533 -42.844)" fill="#2e74e8"/>
</svg>
